<?xml version="1.0" encoding="UTF-8"?>
<svg version="1.1" xmlns="http://www.w3.org/2000/svg" width="170" height="167">
<path d="M0 0 C56.1 0 112.2 0 170 0 C170 55.11 170 110.22 170 167 C113.9 167 57.8 167 0 167 C0 111.89 0 56.78 0 0 Z " fill="#151414" transform="translate(0,0)"/>
<path d="M0 0 C27.06 0 54.12 0 82 0 C81 13 81 13 80 19 C47.99 19 15.98 19 -17 19 C-17.33 27.58 -17.66 36.16 -18 45 C-19.62711864 63.50847458 -19.62711864 63.50847458 -21 69 C-16.05 69 -11.1 69 -6 69 C-6.02964844 67.48277344 -6.05929688 65.96554688 -6.08984375 64.40234375 C-6.08872115 57.39618214 -5.34911546 50.51764409 -4.5625 43.5625 C-4.42779297 42.31017578 -4.29308594 41.05785156 -4.15429688 39.76757812 C-3.05306742 29.75981967 -3.05306742 29.75981967 -2 26 C-1.34 26 -0.68 26 0 26 C0.18720371 33.49334855 -0.40012942 40.74764051 -1.25 48.1875 C-2.99958726 64.17743948 -4.32587946 80.19863442 -5.64160156 96.22924805 C-5.72435333 97.22676086 -5.8071051 98.22427368 -5.8923645 99.25201416 C-6.04829635 101.13289385 -6.20213166 103.01394899 -6.35348511 104.89520264 C-6.42391022 105.74310364 -6.49433533 106.59100464 -6.56689453 107.46459961 C-6.62668488 108.19875595 -6.68647522 108.93291229 -6.74807739 109.6893158 C-7.0517102 112.47429627 -7.53943897 115.23663382 -8 118 C17.08 118 42.16 118 68 118 C68 114.7 68 111.4 68 108 C68.495 106.02 68.495 106.02 69 104 C49.53 104 30.06 104 10 104 C10 103.34 10 102.68 10 102 C30.46 102 50.92 102 72 102 C71 118 71 118 70 120 C37.66 120 5.32 120 -28 120 C-27.67 115.05 -27.34 110.1 -27 105 C-26.7843776 100.87921636 -26.57849901 96.7589592 -26.39453125 92.63671875 C-26.1700797 88.03159221 -25.72666875 83.55379081 -25 79 C-23.515 78.505 -23.515 78.505 -22 78 C-22.31127512 82.41675387 -22.6242492 86.83338585 -22.9375 91.25 C-23.06801758 93.10238281 -23.06801758 93.10238281 -23.20117188 94.9921875 C-23.74646589 102.66669586 -24.34544356 110.33402371 -25 118 C-20.05 118 -15.1 118 -10 118 C-10.02964844 115.99035156 -10.05929688 113.98070312 -10.08984375 111.91015625 C-10.08889156 104.34690027 -9.43339727 96.95152064 -8.5625 89.4375 C-8.42779297 88.20708984 -8.29308594 86.97667969 -8.15429688 85.70898438 C-7.5997117 80.73936016 -6.98170764 75.90853821 -6 71 C-16.56 71 -27.12 71 -38 71 C-38 70.34 -38 69.68 -38 69 C-33.05 69 -28.1 69 -23 69 C-23.01804687 67.42347656 -23.03609375 65.84695312 -23.0546875 64.22265625 C-23.05278001 58.25699409 -22.654733 52.37675328 -22.125 46.4375 C-21.99182373 44.890625 -21.99182373 44.890625 -21.85595703 43.3125 C-21.05387167 34.18930764 -20.06125365 25.09645984 -19 16 C-13.06 16 -7.12 16 -1 16 C-0.67 10.72 -0.34 5.44 0 0 Z " fill="#DFE0E1" transform="translate(68,15)"/>
<path d="M0 0 C25.08 0 50.16 0 76 0 C76 4.29 76 8.58 76 13 C50.92 13 25.84 13 0 13 C0 8.71 0 4.42 0 0 Z " fill="#121111" transform="translate(70,18)"/>
<path d="M0 0 C27.06 0 54.12 0 82 0 C81 13 81 13 80 19 C47.99 19 15.98 19 -17 19 C-17.33 27.58 -17.66 36.16 -18 45 C-18.6110428 51.68552714 -19.22539046 58.33685383 -20 65 C-20.33 65 -20.66 65 -21 65 C-23.17781186 53.29426125 -21.817411 41.41957901 -20.5 29.6875 C-20.35483519 28.34967797 -20.2103009 27.01178737 -20.06640625 25.67382812 C-19.71709768 22.44854563 -19.35942973 19.22417027 -19 16 C-13.06 16 -7.12 16 -1 16 C-0.67 10.72 -0.34 5.44 0 0 Z M2 3 C2 7.29 2 11.58 2 16 C27.08 16 52.16 16 78 16 C78 11.71 78 7.42 78 3 C52.92 3 27.84 3 2 3 Z " fill="#B2B3B4" transform="translate(68,15)"/>
<path d="M0 0 C0.66 0 1.32 0 2 0 C2 2.64 2 5.28 2 8 C21.14 8 40.28 8 60 8 C60 8.66 60 9.32 60 10 C40.53 10 21.06 10 1 10 C1 14.29 1 18.58 1 23 C0.67 24.32 0.34 25.64 0 27 C15.84 27 31.68 27 48 27 C47.67 32.94 47.34 38.88 47 45 C30.17 45 13.34 45 -4 45 C-4 44.34 -4 43.68 -4 43 C12.17 43 28.34 43 45 43 C45 38.38 45 33.76 45 29 C29.49 29 13.98 29 -2 29 C-2 14.04560811 -2 14.04560811 -1 7.1875 C-0.90460938 6.48302734 -0.80921875 5.77855469 -0.7109375 5.05273438 C-0.48164385 3.36742607 -0.24204709 1.68352394 0 0 Z " fill="#E0E1E3" transform="translate(85,41)"/>
<path d="M0 0 C0.66 0 1.32 0 2 0 C2.18720371 7.49334855 1.59987058 14.74764051 0.75 22.1875 C-0.99958726 38.17743948 -2.32587946 54.19863442 -3.64160156 70.22924805 C-3.72435333 71.22676086 -3.8071051 72.22427368 -3.8923645 73.25201416 C-4.04829635 75.13289385 -4.20213166 77.01394899 -4.35348511 78.89520264 C-4.72011504 83.3093368 -5.18491089 87.64021067 -6 92 C-8 90 -8 90 -8.24584961 87.68725586 C-8.15944767 79.5783999 -7.48309682 71.61665175 -6.5625 63.5625 C-6.42779297 62.32306641 -6.29308594 61.08363281 -6.15429688 59.80664062 C-5.6002347 54.80386462 -4.98816387 49.94081934 -4 45 C-14.56 45 -25.12 45 -36 45 C-36 44.34 -36 43.68 -36 43 C-31.05 43 -26.1 43 -21 43 C-21 39.37 -21 35.74 -21 32 C-20.34 32 -19.68 32 -19 32 C-19 35.63 -19 39.26 -19 43 C-14.05 43 -9.1 43 -4 43 C-4.02964844 41.48277344 -4.05929688 39.96554688 -4.08984375 38.40234375 C-4.08872115 31.39618214 -3.34911546 24.51764409 -2.5625 17.5625 C-2.42779297 16.31017578 -2.29308594 15.05785156 -2.15429688 13.76757812 C-1.05306742 3.75981967 -1.05306742 3.75981967 0 0 Z " fill="#CDCECF" transform="translate(66,41)"/>
<path d="M0 0 C0.66 0 1.32 0 2 0 C2 2.97 2 5.94 2 9 C27.41 9 52.82 9 79 9 C79 9.66 79 10.32 79 11 C52.6 11 26.2 11 -1 11 C-1 1 -1 1 0 0 Z " fill="#CECFD0" transform="translate(57,142)"/>
<path d="M0 0 C20.46 0 40.92 0 62 0 C61.67 5.28 61.34 10.56 61 16 C60.01 16 59.02 16 58 16 C57.972807 14.41676312 57.95351694 12.83338938 57.9375 11.25 C57.92589844 10.36828125 57.91429687 9.4865625 57.90234375 8.578125 C58 6 58 6 59 2 C39.53 2 20.06 2 0 2 C0 1.34 0 0.68 0 0 Z " fill="#D0D1D1" transform="translate(78,117)"/>
<path d="M0 0 C0.33 0 0.66 0 1 0 C1.495 7.92 1.495 7.92 2 16 C-14.83 16 -31.66 16 -49 16 C-49 15.34 -49 14.68 -49 14 C-32.83 14 -16.66 14 0 14 C0 9.38 0 4.76 0 0 Z " fill="#CFD0D1" transform="translate(130,70)"/>
<path d="M0 0 C5.94 0 11.88 0 18 0 C18 0.33 18 0.66 18 1 C12.39 1 6.78 1 1 1 C1.18304688 2.37285156 1.36609375 3.74570312 1.5546875 5.16015625 C2.20168155 11.65410188 1.68261647 17.95249282 1.125 24.4375 C1.03347656 25.58798828 0.94195312 26.73847656 0.84765625 27.92382812 C0.28208166 34.95368127 -0.34779611 41.97770113 -1 49 C-1.33 49 -1.66 49 -2 49 C-4.17781186 37.29426125 -2.817411 25.41957901 -1.5 13.6875 C-1.35483519 12.34967797 -1.2103009 11.01178737 -1.06640625 9.67382812 C-0.71709768 6.44854563 -0.35942973 3.22417027 0 0 Z " fill="#C1C1C2" transform="translate(49,31)"/>
<path d="M0 0 C0.66 0 1.32 0 2 0 C1.68872488 4.41675387 1.3757508 8.83338585 1.0625 13.25 C0.97548828 14.48492187 0.88847656 15.71984375 0.79882812 16.9921875 C0.25353411 24.66669586 -0.34544356 32.33402371 -1 40 C3.95 40 8.9 40 14 40 C14 40.33 14 40.66 14 41 C8.06 41.33 2.12 41.66 -4 42 C-3.855625 39.916875 -3.71125 37.83375 -3.5625 35.6875 C-3.25079987 31.13318623 -2.97154721 26.57899595 -2.74609375 22.01953125 C-2.70476318 21.18526611 -2.66343262 20.35100098 -2.62084961 19.49145508 C-2.54196355 17.86512723 -2.46582896 16.23866293 -2.39282227 14.61206055 C-1.76972565 1.76972565 -1.76972565 1.76972565 0 0 Z " fill="#C3C3C4" transform="translate(44,93)"/>
<path d="M0 0 C0.33 0 0.66 0 1 0 C1.30176458 9.22058433 0.77218487 18.30990067 0.0625 27.5 C-0.02435059 28.63356934 -0.11120117 29.76713867 -0.20068359 30.93505859 C-0.60901074 36.0108443 -1.11274796 40.98198846 -2 46 C-4 44 -4 44 -4.24584961 41.68945312 C-4.15917393 33.55968399 -3.48209634 25.57533903 -2.5625 17.5 C-2.42779297 16.2521875 -2.29308594 15.004375 -2.15429688 13.71875 C-1.05604898 3.7755886 -1.05604898 3.7755886 0 0 Z " fill="#D0D1D2" transform="translate(62,87)"/>
<path d="M0 0 C0.66 0 1.32 0 2 0 C2.20257148 6.38100158 1.85900191 12.597257 1.1875 18.9375 C1.11740723 19.68314209 1.04731445 20.42878418 0.97509766 21.19702148 C0.36577314 26.53438804 0.36577314 26.53438804 -1.57421875 29.00390625 C-2.04472656 29.33261719 -2.51523437 29.66132812 -3 30 C-2.50100262 19.88873728 -1.61017136 10.00494828 0 0 Z " fill="#C5C5C6" transform="translate(66,41)"/>
<path d="M0 0 C0.66 0 1.32 0 2 0 C2 2.64 2 5.28 2 8 C2.66 8 3.32 8 4 8 C4 8.66 4 9.32 4 10 C3.01 10 2.02 10 1 10 C1 14.29 1 18.58 1 23 C0.67 23 0.34 23 0 23 C-0.1954384 20.10450497 -0.38161395 17.20891002 -0.5625 14.3125 C-0.61857422 13.49587891 -0.67464844 12.67925781 -0.73242188 11.83789062 C-0.98341571 7.70485877 -1.11127743 4.04175718 0 0 Z " fill="#C0C1C1" transform="translate(85,41)"/>
<path d="M0 0 C0.99 0 1.98 0 3 0 C3.11044961 6.73742646 2.70132913 13.29980211 2 20 C1.67 20 1.34 20 1 20 C-0.23839599 13.34362157 -0.09139136 6.7528064 0 0 Z " fill="#ABABAC" transform="translate(46,60)"/>
<path d="M0 0 C0.33 0 0.66 0 1 0 C1 1.65 1 3.3 1 5 C6.28 5 11.56 5 17 5 C17 5.33 17 5.66 17 6 C11.06 6.33 5.12 6.66 -1 7 C-1 1 -1 1 0 0 Z " fill="#D4D5D6" transform="translate(41,128)"/>
<path d="M0 0 C0.33 0 0.66 0 1 0 C1.24887295 2.10192697 1.4734719 4.20673964 1.6875 6.3125 C1.81511719 7.48425781 1.94273438 8.65601563 2.07421875 9.86328125 C2 13 2 13 -1 16 C-0.67 10.72 -0.34 5.44 0 0 Z " fill="#AEAFAF" transform="translate(64,55)"/>
</svg>
